<svg xmlns="http://www.w3.org/2000/svg" viewBox="0 0 48 48" role="img" aria-label="LINE">
  <rect x="2" y="2" width="44" height="44" rx="10" fill="#06C755" />
  <path
    fill="#fff"
    d="M24 10c-7.5 0-13.5 4.9-13.5 11s6 11 13.5 11c1.2 0 2.4-.1 3.5-.4l4.3 3.1c.7.5 1.6-.1 1.4-.9l-.8-4.1c3.1-2 5.1-5.1 5.1-8.7 0-6.1-6-11-13.5-11z"
  />
  <path
    fill="#06C755"
    d="M17.1 24.9c0 .4.3.7.7.7h2.7c.4 0 .7-.3.7-.7s-.3-.7-.7-.7h-2v-4.5c0-.4-.3-.7-.7-.7s-.7.3-.7.7v5.2zm5.6 0c0 .4.3.7.7.7s.7-.3.7-.7v-5.2c0-.4-.3-.7-.7-.7s-.7.3-.7.7v5.2zm2.9 0c0 .4.3.7.7.7s.7-.3.7-.7v-3.3l2.6 3.8c.1.2.3.3.6.3h.5c.4 0 .7-.3.7-.7v-5.2c0-.4-.3-.7-.7-.7s-.7.3-.7.7v3.2l-2.5-3.6a.8.8 0 0 0-.6-.3h-.6c-.4 0-.7.3-.7.7v5.1zm7.2 0c0 .4.3.7.7.7H37c.4 0 .7-.3.7-.7s-.3-.7-.7-.7h-2.6v-1.2h2.6c.4 0 .7-.3.7-.7s-.3-.7-.7-.7h-2.6v-1.2H37c.4 0 .7-.3.7-.7s-.3-.7-.7-.7h-3.5c-.4 0-.7.3-.7.7v5.2z"
  />
</svg>
